<?xml version="1.0" encoding="UTF-8" standalone="no"?>
<!-- Created with Inkscape (http://www.inkscape.org/) -->

<svg
   width="115.72488mm"
   height="19.716986mm"
   viewBox="0 0 115.72488 19.716986"
   version="1.1"
   id="svg1443"
   inkscape:version="1.3 (0e150ed6c4, 2023-07-21)"
   sodipodi:docname="TRRS_connector_abbreviated.svg"
   xmlns:inkscape="http://www.inkscape.org/namespaces/inkscape"
   xmlns:sodipodi="http://sodipodi.sourceforge.net/DTD/sodipodi-0.dtd"
   xmlns:xlink="http://www.w3.org/1999/xlink"
   xmlns="http://www.w3.org/2000/svg"
   xmlns:svg="http://www.w3.org/2000/svg"
   xmlns:rdf="http://www.w3.org/1999/02/22-rdf-syntax-ns#"
   xmlns:cc="http://creativecommons.org/ns#">
  <defs
     id="defs1437">
    <linearGradient
       y2="385.37372"
       x2="-370"
       y1="395.93362"
       x1="-370"
       gradientTransform="matrix(2.379739,0,0,2.379739,1205.9905,-475.51815)"
       gradientUnits="userSpaceOnUse"
       id="linearGradient7572"
       xlink:href="#linearGradient5488-2-7-4"
       inkscape:collect="always" />
    <linearGradient
       inkscape:collect="always"
       id="linearGradient5488-2-7-4">
      <stop
         style="stop-color:#666666;stop-opacity:1;"
         offset="0"
         id="stop5490-4-3-1" />
      <stop
         style="stop-color:#666666;stop-opacity:0;"
         offset="1"
         id="stop5492-2-2-8" />
    </linearGradient>
    <filter
       style="color-interpolation-filters:sRGB"
       inkscape:collect="always"
       id="filter6477-0"
       x="-0.044696628"
       width="1.0893933"
       y="-0.46799982"
       height="1.9359996">
      <feGaussianBlur
         inkscape:collect="always"
         stdDeviation="0.83716395"
         id="feGaussianBlur6479-8" />
    </filter>
    <linearGradient
       inkscape:collect="always"
       xlink:href="#linearGradient5488-2-7-4"
       id="linearGradient7287"
       gradientUnits="userSpaceOnUse"
       x1="-370"
       y1="395.93362"
       x2="-370"
       y2="385.37372"
       gradientTransform="matrix(2.379739,0,0,2.379739,1169.9905,-475.51815)" />
    <linearGradient
       inkscape:collect="always"
       id="linearGradient6411-1">
      <stop
         style="stop-color:#4d4d4d;stop-opacity:1;"
         offset="0"
         id="stop6413-7" />
      <stop
         style="stop-color:#4d4d4d;stop-opacity:0;"
         offset="1"
         id="stop6415-4" />
    </linearGradient>
    <linearGradient
       inkscape:collect="always"
       xlink:href="#linearGradient6423-9"
       id="linearGradient7416"
       gradientUnits="userSpaceOnUse"
       gradientTransform="matrix(2.379739,0,0,2.379739,1175.0099,-558.70549)"
       x1="-286.63077"
       y1="402.58157"
       x2="-286.37823"
       y2="382.00397" />
    <linearGradient
       inkscape:collect="always"
       id="linearGradient6423-9">
      <stop
         style="stop-color:#000000;stop-opacity:1;"
         offset="0"
         id="stop6425-2" />
      <stop
         style="stop-color:#000000;stop-opacity:0;"
         offset="1"
         id="stop6427-7" />
    </linearGradient>
    <linearGradient
       inkscape:collect="always"
       xlink:href="#linearGradient6411-1"
       id="linearGradient7378"
       gradientUnits="userSpaceOnUse"
       gradientTransform="matrix(2.379739,0,0,2.379739,1175.0099,-558.95803)"
       x1="-398.125"
       y1="378.88004"
       x2="-397.76785"
       y2="395.26398" />
    <linearGradient
       inkscape:collect="always"
       xlink:href="#linearGradient5488-2-7-4"
       id="linearGradient7400"
       gradientUnits="userSpaceOnUse"
       gradientTransform="matrix(0.50270063,0,0,2.379739,426.4406,-475.51813)"
       x1="-370"
       y1="395.93362"
       x2="-370"
       y2="385.37372" />
    <linearGradient
       inkscape:collect="always"
       xlink:href="#linearGradient5488-2-7-4"
       id="linearGradient7402"
       gradientUnits="userSpaceOnUse"
       gradientTransform="matrix(0.50270063,0,0,2.379739,425.52682,-475.51815)"
       x1="-370"
       y1="395.93362"
       x2="-370"
       y2="385.37372" />
    <linearGradient
       inkscape:collect="always"
       xlink:href="#linearGradient5488-2-7-4"
       id="linearGradient2156"
       gradientUnits="userSpaceOnUse"
       gradientTransform="matrix(2.379739,0,0,2.379739,1205.9905,-475.51815)"
       x1="-370"
       y1="395.93362"
       x2="-370"
       y2="385.37372" />
    <linearGradient
       inkscape:collect="always"
       xlink:href="#linearGradient6411-1"
       id="linearGradient2164"
       gradientUnits="userSpaceOnUse"
       gradientTransform="matrix(2.379739,0,0,2.379739,1175.0099,-558.95803)"
       x1="-398.125"
       y1="378.88004"
       x2="-397.76785"
       y2="395.26398" />
    <linearGradient
       inkscape:collect="always"
       xlink:href="#linearGradient6411-1"
       id="linearGradient2166"
       gradientUnits="userSpaceOnUse"
       gradientTransform="matrix(2.379739,0,0,2.379739,1175.0099,-558.95803)"
       x1="-398.125"
       y1="378.88004"
       x2="-397.76785"
       y2="395.26398" />
    <linearGradient
       inkscape:collect="always"
       xlink:href="#linearGradient6411-1"
       id="linearGradient2168"
       gradientUnits="userSpaceOnUse"
       gradientTransform="matrix(2.379739,0,0,2.379739,1175.0099,-558.95803)"
       x1="-398.125"
       y1="378.88004"
       x2="-397.76785"
       y2="395.26398" />
  </defs>
  <sodipodi:namedview
     id="base"
     pagecolor="#ffffff"
     bordercolor="#666666"
     borderopacity="1.0"
     inkscape:pageopacity="0.0"
     inkscape:pageshadow="2"
     inkscape:zoom="6.5661494"
     inkscape:cx="102.41923"
     inkscape:cy="33.885918"
     inkscape:document-units="mm"
     inkscape:current-layer="g1275"
     showgrid="false"
     fit-margin-top="0"
     fit-margin-left="0"
     fit-margin-right="0"
     fit-margin-bottom="0"
     inkscape:window-width="2560"
     inkscape:window-height="1529"
     inkscape:window-x="-8"
     inkscape:window-y="-8"
     inkscape:window-maximized="1"
     inkscape:showpageshadow="2"
     inkscape:pagecheckerboard="0"
     inkscape:deskcolor="#d1d1d1" />
  <metadata
     id="metadata1440">
    <rdf:RDF>
      <cc:Work
         rdf:about="" />
    </rdf:RDF>
  </metadata>
  <g
     inkscape:label="Livello 1"
     inkscape:groupmode="layer"
     id="layer1"
     transform="translate(-16.902941,-80.852877)">
    <g
       transform="matrix(0.26458333,0,0,0.26458333,-23.857075,-27.097135)"
       id="g1275">
      <path
         style="fill:#cccccc;fill-opacity:1;stroke:none"
         d="m 262.14767,426.20554 h 137.98385 v 39.09571 H 262.14767 Z"
         id="rect5469-5"
         inkscape:connector-curvature="0" />
      <path
         style="color:#000000;display:inline;overflow:visible;visibility:visible;fill:url(#linearGradient2156);fill-opacity:1;fill-rule:nonzero;stroke:none;stroke-width:1;marker:none;enable-background:accumulate"
         d="m 262.14767,426.20554 h 137.98385 v 39.09571 H 262.14767 Z"
         id="rect6373-3"
         inkscape:connector-curvature="0" />
      <path
         id="rect6431-5"
         d="m -387.25836,381.11581 h 29.52924 c 4.27205,0 7.71127,0.95738 7.71127,2.14658 0,1.1892 -3.43922,2.14657 -7.71127,2.14657 h -29.52924 c -4.27205,0 -7.71128,-0.95737 -7.71128,-2.14657 0,-1.1892 3.43923,-2.14658 7.71128,-2.14658 z"
         style="color:#000000;display:inline;overflow:visible;visibility:visible;opacity:0.85865724;fill:#f2f2f2;fill-opacity:1;fill-rule:nonzero;stroke:none;stroke-width:1;marker:none;filter:url(#filter6477-0);enable-background:accumulate"
         inkscape:connector-curvature="0"
         transform="matrix(1.8585522,0,0,2.379739,998.70756,-475.51815)" />
      <path
         style="fill:#cccccc;fill-opacity:1;stroke:none"
         d="m 262.14767,426.20554 h 137.98385 v 39.09571 H 262.14767 Z"
         id="rect7292"
         inkscape:connector-curvature="0" />
      <path
         style="color:#000000;display:inline;overflow:visible;visibility:visible;fill:url(#linearGradient7572);fill-opacity:1;fill-rule:nonzero;stroke:none;stroke-width:1;marker:none;enable-background:accumulate"
         d="m 262.14767,426.20554 h 137.98385 v 39.09571 H 262.14767 Z"
         id="rect7296"
         inkscape:connector-curvature="0" />
      <path
         transform="matrix(2.0261712,0,0,2.379739,1064.912,-475.51815)"
         inkscape:connector-curvature="0"
         style="color:#000000;display:inline;overflow:visible;visibility:visible;opacity:0.85865724;fill:#f2f2f2;fill-opacity:1;fill-rule:nonzero;stroke:none;stroke-width:1;marker:none;filter:url(#filter6477-0);enable-background:accumulate"
         d="m -387.25836,381.11581 h 29.52924 c 4.27205,0 7.71127,0.95738 7.71127,2.14658 0,1.1892 -3.43922,2.14657 -7.71127,2.14657 h -29.52924 c -4.27205,0 -7.71128,-0.95737 -7.71128,-2.14657 0,-1.1892 3.43923,-2.14658 7.71128,-2.14658 z"
         id="path7300" />
      <path
         sodipodi:nodetypes="caccacc"
         inkscape:connector-curvature="0"
         id="rect5471-5"
         d="m 188.06151,426.20553 c 0,0 10.49058,7.79665 16.57319,7.64917 5.51052,-0.1335 14.66093,-7.64917 14.66093,-7.64917 v 39.09571 c 0,0 -8.82312,-10.27824 -14.87342,-10.41136 -6.46261,-0.14231 -16.3607,10.41136 -16.3607,10.41136 -45.08856,-15.90341 -45.59847,-27.98459 0,-39.09571 z"
         style="fill:#cccccc;fill-opacity:1;stroke:none" />
      <path
         id="rect5476-0"
         d="m 255.29563,426.20553 h 6.85203 v 39.09571 h -6.85203 z"
         style="fill:#000000;fill-opacity:1;stroke:none"
         inkscape:connector-curvature="0" />
      <path
         style="color:#000000;display:inline;overflow:visible;visibility:visible;fill:url(#linearGradient7287);fill-opacity:1;fill-rule:nonzero;stroke:none;marker:none;enable-background:accumulate"
         d="m 188.06151,426.20553 c 0,0 10.49058,7.79665 16.57319,7.64917 5.51052,-0.1335 14.66093,-7.64917 14.66093,-7.64917 v 39.09571 c 0,0 -8.82312,-10.27824 -14.87342,-10.41136 -6.46261,-0.14231 -16.3607,10.41136 -16.3607,10.41136 -45.08856,-15.90341 -45.59847,-27.98459 0,-39.09571 z"
         id="path5496-4"
         inkscape:connector-curvature="0"
         sodipodi:nodetypes="caccacc" />
      <g
         transform="translate(2.980559,83.18734)"
         id="g7412">
        <path
           inkscape:connector-curvature="0"
           style="color:#000000;display:inline;overflow:visible;visibility:visible;fill:#4d4d4d;fill-opacity:1;fill-rule:nonzero;stroke:none;stroke-width:1;marker:none;enable-background:accumulate"
           d="m 376.0349,324.81271 h 194.07271 c 10.16637,0 18.35081,10.32874 18.35081,23.1586 v 28.20367 c 0,12.82986 -8.18444,23.15862 -18.35081,23.15862 H 376.0349 c -10.16636,0 -18.35081,-10.32876 -18.35081,-23.15862 v -28.20367 c 0,-12.82986 8.18445,-23.1586 18.35081,-23.1586 z"
           id="rect6419-3" />
        <path
           inkscape:connector-curvature="0"
           style="color:#000000;display:inline;overflow:visible;visibility:visible;fill:url(#linearGradient7416);fill-opacity:1;fill-rule:nonzero;stroke:none;stroke-width:1;marker:none;enable-background:accumulate"
           d="m 376.0349,324.81271 h 194.07271 c 10.16637,0 18.35081,10.32874 18.35081,23.1586 v 28.20367 c 0,12.82986 -8.18444,23.15862 -18.35081,23.15862 H 376.0349 c -10.16636,0 -18.35081,-10.32876 -18.35081,-23.15862 v -28.20367 c 0,-12.82986 8.18445,-23.1586 18.35081,-23.1586 z"
           id="rect6421-0" />
      </g>
      <path
         id="rect6483-5"
         d="m -372.49374,381.11581 c 12.45165,0 22.47589,0.95738 22.47589,2.14658 0,1.1892 -10.02424,2.14657 -22.47589,2.14657 -12.45165,0 -22.4759,-0.95737 -22.4759,-2.14657 0,-1.1892 10.02425,-2.14658 22.4759,-2.14658 z"
         style="color:#000000;display:inline;overflow:visible;visibility:visible;opacity:0.85865724;fill:#f2f2f2;fill-opacity:1;fill-rule:nonzero;stroke:none;stroke-width:1;marker:none;filter:url(#filter6477-0);enable-background:accumulate"
         transform="matrix(0.38610601,0,0,2.379739,330.21172,-475.51815)"
         inkscape:connector-curvature="0" />
      <g
         transform="translate(-5.019441,83.43988)"
         id="g7368">
        <path
           id="path7344"
           d="m 224.31507,342.76565 h 6.85203 v 39.09571 h -6.85203 z"
           style="fill:#000000;fill-opacity:1;stroke:none"
           inkscape:connector-curvature="0" />
        <path
           id="path7346"
           d="m 224.31507,342.76565 h 6.85203 v 39.09571 h -6.85203 z"
           style="fill:url(#linearGradient2164);fill-opacity:1;stroke:none"
           inkscape:connector-curvature="0" />
        <path
           inkscape:connector-curvature="0"
           style="fill:#000000;fill-opacity:1;stroke:none"
           d="m 224.31507,342.76565 h 6.85203 v 39.09571 h -6.85203 z"
           id="path7348" />
        <path
           inkscape:connector-curvature="0"
           style="fill:url(#linearGradient2166);fill-opacity:1;stroke:none"
           d="m 224.31507,342.76565 h 6.85203 v 39.09571 h -6.85203 z"
           id="path7350" />
        <path
           inkscape:connector-curvature="0"
           style="fill:#000000;fill-opacity:1;stroke:none"
           d="m 224.31507,342.76565 h 6.85203 v 39.09571 h -6.85203 z"
           id="path7352" />
        <path
           inkscape:connector-curvature="0"
           style="fill:url(#linearGradient2168);fill-opacity:1;stroke:none"
           d="m 224.31507,342.76565 h 6.85203 v 39.09571 h -6.85203 z"
           id="path7354" />
        <path
           id="path7356"
           d="m 224.31507,342.76565 h 6.85203 v 39.09571 h -6.85203 z"
           style="fill:#000000;fill-opacity:1;stroke:none"
           inkscape:connector-curvature="0" />
        <path
           id="path7358"
           d="m 224.31507,342.76565 h 6.85203 v 39.09571 h -6.85203 z"
           style="fill:url(#linearGradient7378);fill-opacity:1;stroke:none"
           inkscape:connector-curvature="0" />
      </g>
      <path
         inkscape:connector-curvature="0"
         id="rect7388"
         d="m 226.14766,426.20554 h 29.14797 v 39.09571 h -29.14797 z"
         style="fill:#cccccc;fill-opacity:1;stroke:none" />
      <path
         inkscape:connector-curvature="0"
         id="rect7390"
         d="m 227.06143,426.20554 h 29.14797 v 39.09571 h -29.14797 z"
         style="color:#000000;display:inline;overflow:visible;visibility:visible;fill:url(#linearGradient7400);fill-opacity:1;fill-rule:nonzero;stroke:none;stroke-width:1;marker:none;enable-background:accumulate" />
      <path
         transform="matrix(0.39260413,0,0,2.379739,381.73998,-475.51814)"
         inkscape:connector-curvature="0"
         style="color:#000000;display:inline;overflow:visible;visibility:visible;opacity:0.85865724;fill:#f2f2f2;fill-opacity:1;fill-rule:nonzero;stroke:none;stroke-width:1;marker:none;filter:url(#filter6477-0);enable-background:accumulate"
         d="m -387.25836,381.11581 h 29.52924 c 4.27205,0 7.71127,0.95738 7.71127,2.14658 0,1.1892 -3.43922,2.14657 -7.71127,2.14657 h -29.52924 c -4.27205,0 -7.71128,-0.95737 -7.71128,-2.14657 0,-1.1892 3.43923,-2.14658 7.71128,-2.14658 z"
         id="path7392" />
      <path
         inkscape:connector-curvature="0"
         id="rect7394"
         d="m 240.72164,426.20554 c 8.07399,0 14.57399,0.40754 14.57399,0.91377 v 37.26816 c 0,0.50624 -6.5,0.91378 -14.57399,0.91378 -8.07398,0 -14.57398,-0.40754 -14.57398,-0.91378 v -37.26816 c 0,-0.50623 6.5,-0.91377 14.57398,-0.91377 z"
         style="fill:#cccccc;fill-opacity:1;stroke:none" />
      <path
         inkscape:connector-curvature="0"
         id="rect7396"
         d="m 226.14766,426.20554 h 29.14797 v 39.09571 h -29.14797 z"
         style="color:#000000;display:inline;overflow:visible;visibility:visible;fill:url(#linearGradient7402);fill-opacity:1;fill-rule:nonzero;stroke:none;stroke-width:1;marker:none;enable-background:accumulate" />
      <path
         id="path7398"
         d="m -387.25836,381.11581 h 29.52924 c 4.27205,0 7.71127,0.95738 7.71127,2.14658 0,1.1892 -3.43922,2.14657 -7.71127,2.14657 h -29.52924 c -4.27205,0 -7.71128,-0.95737 -7.71128,-2.14657 0,-1.1892 3.43923,-2.14658 7.71128,-2.14658 z"
         style="color:#000000;display:inline;overflow:visible;visibility:visible;opacity:0.85865724;fill:#f2f2f2;fill-opacity:1;fill-rule:nonzero;stroke:none;stroke-width:1;marker:none;filter:url(#filter6477-0);enable-background:accumulate"
         inkscape:connector-curvature="0"
         transform="matrix(0.59196618,0,0,2.379739,461.30499,-475.51814)" />
      <path
         id="rect5476-0-6"
         d="m 290.68341,426.19995 h 6.85203 v 39.09571 h -6.85203 z"
         style="fill:#000000;fill-opacity:1;stroke:none"
         inkscape:connector-curvature="0" />
      <text
         xml:space="preserve"
         style="font-size:21.3333px;font-family:Arial;-inkscape-font-specification:Arial;fill:#4d4d4d;stroke:none;stroke-width:1.88976"
         x="181.2892"
         y="424.44952"
         id="text1"><tspan
           sodipodi:role="line"
           id="tspan1"
           x="181.2892"
           y="424.44952"
           style="font-size:21.3333px">T</tspan></text>
      <text
         xml:space="preserve"
         style="font-size:21.3333px;font-family:Arial;-inkscape-font-specification:Arial;fill:#4d4d4d;stroke:none;stroke-width:1.88976"
         x="233.07657"
         y="424.35709"
         id="text1-6"><tspan
           sodipodi:role="line"
           id="tspan1-4"
           x="233.07657"
           y="424.35709"
           style="font-size:21.3333px">R</tspan></text>
      <text
         xml:space="preserve"
         style="font-size:21.3333px;font-family:Arial;-inkscape-font-specification:Arial;fill:#4d4d4d;stroke:none;stroke-width:1.88976"
         x="268.91965"
         y="424.35706"
         id="text1-6-4"><tspan
           sodipodi:role="line"
           id="tspan1-4-4"
           x="268.91965"
           y="424.35706"
           style="font-size:21.3333px">R</tspan></text>
      <text
         xml:space="preserve"
         style="font-size:21.3333px;font-family:Arial;-inkscape-font-specification:Arial;fill:#4d4d4d;stroke:none;stroke-width:1.88976"
         x="324.46838"
         y="424.70193"
         id="text1-6-8"><tspan
           sodipodi:role="line"
           id="tspan1-4-45"
           x="324.46838"
           y="424.70193"
           style="font-size:21.3333px">S</tspan></text>
    </g>
  </g>
</svg>
